<mxfile host="app.diagrams.net" modified="2024-06-23T04:38:52.006Z" agent="Mozilla/5.0 (Windows NT 10.0; Win64; x64) AppleWebKit/537.36 (KHTML, like Gecko) Chrome/126.0.0.0 Safari/537.36" version="24.6.2" etag="O33sgq0ZK9zopGoYRGHI" type="github">
  <diagram name="Page-1" id="Z_xWxAytjzST8BRUz4m1">
    <mxGraphModel>
      <root>
        <mxCell id="0" />
        <mxCell id="1" parent="0" />
      </root>
    </mxGraphModel>
  </diagram>
</mxfile>
